<svg width="29" height="33" viewBox="0 0 29 33" fill="none" xmlns="http://www.w3.org/2000/svg">
<path d="M14.4745 0.000527198C14.2708 0.00893348 14.0812 0.0986061 13.9481 0.252732L9.81903 5.02219H2.29663C2.25418 5.01659 2.21455 5.01098 2.1721 5.01098C2.13814 5.01378 2.10135 5.01659 2.06739 5.02219H0.734413C0.474044 5.01939 0.230657 5.1539 0.0976411 5.37808C-0.0325444 5.60226 -0.0325444 5.87688 0.0976411 6.10106C0.230655 6.32524 0.474044 6.45975 0.734413 6.45695H1.45892V7.89171C1.45609 8.14952 1.59193 8.39051 1.81834 8.52222C2.04475 8.65112 2.3221 8.65112 2.5485 8.52222C2.77491 8.39051 2.91076 8.14952 2.90793 7.89171V6.45695H3.41168L9.42847 10.4278V14.3481H2.29662C2.25417 14.3425 2.21455 14.3369 2.1721 14.3369C2.13814 14.3397 2.10135 14.3425 2.06739 14.3481H0.734411C0.474042 14.3453 0.230655 14.4798 0.0976391 14.704C-0.0325464 14.9282 -0.0325464 15.2028 0.0976391 15.427C0.230653 15.6512 0.474042 15.7857 0.734411 15.7829H1.45892V17.2177C1.45609 17.4755 1.59193 17.7165 1.81834 17.8482C2.04475 17.9771 2.32209 17.9771 2.5485 17.8482C2.77491 17.7165 2.91075 17.4755 2.90792 17.2177V15.7829H3.41168L9.42847 19.7537V24.1589L3.7711 31.8595C3.58432 32.1145 3.58715 32.4592 3.77676 32.7114C3.96921 32.9636 4.30033 33.0645 4.60032 32.958L14.5 29.458L24.3997 32.958C24.6997 33.0645 25.0308 32.9636 25.2232 32.7114C25.4129 32.4592 25.4157 32.1145 25.2289 31.8595L19.5715 24.1589V19.7537L25.5855 15.7829H26.0921V17.2177C26.0892 17.4755 26.2251 17.7165 26.4515 17.8482C26.6779 17.9771 26.9553 17.9771 27.1817 17.8482C27.4081 17.7165 27.5439 17.4755 27.5411 17.2177V15.7829H28.2656C28.526 15.7857 28.7693 15.6512 28.9024 15.427C29.0325 15.2028 29.0325 14.9282 28.9024 14.704C28.7693 14.4798 28.526 14.3453 28.2656 14.3481H26.9298C26.8873 14.3425 26.8477 14.3369 26.8053 14.3369C26.7713 14.3397 26.7345 14.3425 26.7005 14.3481H19.5715V10.4278L25.5855 6.45695H26.0921V7.89171C26.0892 8.14952 26.2251 8.39051 26.4515 8.52222C26.6779 8.65112 26.9553 8.65112 27.1817 8.52222C27.4081 8.39051 27.5439 8.14952 27.5411 7.89171V6.45695H28.2656C28.526 6.45975 28.7693 6.32524 28.9024 6.10106C29.0325 5.87688 29.0325 5.60226 28.9024 5.37808C28.7693 5.1539 28.526 5.01939 28.2656 5.02219H26.9298C26.8873 5.01659 26.8477 5.01098 26.8053 5.01098C26.7713 5.01378 26.7345 5.01659 26.7005 5.02219H19.181L15.0519 0.252732C14.9075 0.0845963 14.6953 -0.00787908 14.4745 0.000527198H14.4745ZM14.5 1.822L17.2735 5.02219H11.7265L14.5 1.822ZM6.02387 6.45695H9.42847V8.70157L6.02387 6.45695ZM11.8058 6.45695H17.1943L14.5 9.34609L11.8058 6.45695ZM19.5715 6.45695H22.9761L19.5715 8.70157V6.45695ZM10.8775 7.57505L13.5151 10.4025L10.8775 13.23V7.57505ZM18.1225 7.57505V13.23L15.4849 10.4025L18.1225 7.57505ZM14.5 11.459L17.1914 14.3481H11.8086L14.5 11.459ZM6.02387 15.7829H9.42847V18.0275L6.02387 15.7829ZM11.8086 15.7829H17.1914L14.5 18.672L11.8086 15.7829ZM19.5715 15.7829H22.9761L19.5715 18.0275V15.7829ZM10.8775 16.901L13.5151 19.7285L10.8775 22.556V16.901ZM18.1225 16.901V22.556L15.4849 19.7285L18.1225 16.901ZM14.5 20.7849L17.8424 24.3718L14.5 27.6813L11.1577 24.3718L14.5 20.7849ZM10.2407 25.4928L13.1783 28.4015L6.32386 30.8255L10.2407 25.4928ZM18.7593 25.4928L22.6762 30.8255L15.8217 28.4015L18.7593 25.4928Z" fill="#3498DB"/>
</svg>
