<svg width="90" height="90" viewBox="0 0 90 90" fill="none" xmlns="http://www.w3.org/2000/svg">
<rect x="0.730469" y="0.625" width="88.9667" height="88.9335" rx="44.4667" fill="#F79A38"/>
<path d="M59.0873 51.3009C60.2544 50.1342 60.4211 48.4676 59.4207 46.801C58.5871 45.4676 57.0866 44.801 55.4193 45.1343C54.7524 45.301 54.0855 45.6343 53.4186 46.1343C48.2501 49.6342 41.2476 49.4676 36.0791 45.9676C35.7457 45.801 35.4122 45.6343 35.0787 45.4676C33.2448 44.6343 31.4108 44.9677 30.4104 46.6343C29.2434 48.3009 29.4101 50.1342 30.9106 51.6342C31.244 51.9675 31.5775 52.1342 31.7442 52.4675L31.911 52.6342C34.2451 54.4675 37.0795 55.6341 40.7474 56.1341L38.58 58.3008C36.746 60.1341 34.7453 62.134 32.9113 63.9673C32.4111 64.4673 31.7442 65.3006 31.7442 66.4673C31.7442 67.9672 32.5779 69.4672 34.0784 70.1339C34.5786 70.4672 35.0787 70.4672 35.5789 70.4672C36.4126 70.4672 37.4129 70.1339 38.0798 69.3005C40.5807 66.8006 42.5814 64.8006 44.5821 62.8007C44.7489 62.634 44.7488 62.634 44.7488 62.634C44.7488 62.634 44.9156 62.634 44.9156 62.8007C46.2494 64.3006 47.7499 65.6339 49.0837 67.1339C49.7506 67.8006 50.4175 68.4672 51.0844 69.1339C51.9181 69.9672 52.585 70.3005 53.5853 70.3005C55.0859 70.4672 56.7531 69.4672 57.42 67.9672C58.0869 66.6339 57.7535 64.9673 56.5864 63.9673C54.9191 62.3007 53.2519 60.4674 51.4179 58.8007L48.5835 55.9675C50.0841 55.8008 51.7513 55.4675 53.2519 54.8008C55.7528 53.9675 57.5867 52.8008 59.0873 51.3009Z" fill="white"/>
<path d="M44.7488 46.6343C51.9181 46.6343 57.7535 40.9677 57.7535 33.8012C57.7535 30.3012 56.4197 26.968 53.9188 24.468C51.4179 21.9681 48.2501 20.6348 44.9156 20.6348C37.7464 20.6348 32.0777 26.468 31.911 33.4679C31.911 36.9678 33.2448 40.1344 35.7457 42.6343C38.0798 45.301 41.2476 46.6343 44.7488 46.6343ZM41.0809 29.9679C42.0812 28.968 43.415 28.4679 44.7488 28.4679C47.7499 28.4679 49.9174 30.8012 49.9174 33.6345C49.9174 36.6345 47.5832 38.8011 44.7488 38.8011C41.7478 38.8011 39.5804 36.4678 39.5804 33.6345C39.5804 32.3012 40.0805 30.9679 41.0809 29.9679Z" fill="white"/>
<path d="M59.0873 51.3009C60.2544 50.1342 60.4211 48.4676 59.4207 46.801C58.5871 45.4676 57.0866 44.801 55.4193 45.1343C54.7524 45.301 54.0855 45.6343 53.4186 46.1343C48.2501 49.6342 41.2476 49.4676 36.0791 45.9676C35.7457 45.801 35.4122 45.6343 35.0787 45.4676C33.2448 44.6343 31.4108 44.9677 30.4104 46.6343C29.2434 48.3009 29.4101 50.1342 30.9106 51.6342C31.244 51.9675 31.5775 52.1342 31.7442 52.4675L31.911 52.6342C34.2451 54.4675 37.0795 55.6341 40.7474 56.1341L38.58 58.3008C36.746 60.1341 34.7453 62.134 32.9113 63.9673C32.4111 64.4673 31.7442 65.3006 31.7442 66.4673C31.7442 67.9672 32.5779 69.4672 34.0784 70.1339C34.5786 70.4672 35.0787 70.4672 35.5789 70.4672C36.4126 70.4672 37.4129 70.1339 38.0798 69.3005C40.5807 66.8006 42.5814 64.8006 44.5821 62.8007C44.7489 62.634 44.7488 62.634 44.7488 62.634C44.7488 62.634 44.9156 62.634 44.9156 62.8007C46.2494 64.3006 47.7499 65.6339 49.0837 67.1339C49.7506 67.8006 50.4175 68.4672 51.0844 69.1339C51.9181 69.9672 52.585 70.3005 53.5853 70.3005C55.0859 70.4672 56.7531 69.4672 57.42 67.9672C58.0869 66.6339 57.7535 64.9673 56.5864 63.9673C54.9191 62.3007 53.2519 60.4674 51.4179 58.8007L48.5835 55.9675C50.0841 55.8008 51.7513 55.4675 53.2519 54.8008C55.7528 53.9675 57.5867 52.8008 59.0873 51.3009Z" fill="white"/>
</svg>
