<svg width="90" height="90" viewBox="0 0 90 90" fill="none" xmlns="http://www.w3.org/2000/svg">
<rect x="0.730469" y="0.341797" width="88.9667" height="88.9335" rx="44.4667" fill="#0077FF"/>
<path d="M47.3992 60.3728C30.6811 60.3728 21.1454 48.6886 20.748 29.2461H29.1224C29.3974 43.5164 35.5712 49.561 40.4613 50.8073V29.2461H48.3466V41.5535C53.1756 41.0238 58.2491 35.4154 59.9606 29.2461H67.8459C67.201 32.4456 65.9154 35.4751 64.0695 38.145C62.2236 40.8149 59.8572 43.0678 57.1183 44.7627C60.1756 46.3114 62.876 48.5035 65.0413 51.1943C67.2065 53.8851 68.7875 57.0134 69.6797 60.3728H60.9998C60.1988 57.4549 58.5709 54.8429 56.32 52.8642C54.0692 50.8855 51.2955 49.628 48.3466 49.2494V60.3728H47.3992V60.3728Z" fill="white"/>
</svg>
