<svg width="90" height="90" viewBox="0 0 90 90" fill="none" xmlns="http://www.w3.org/2000/svg">
<rect x="0.388672" y="0.341797" width="88.9667" height="88.9335" rx="44.4667" fill="#48C95F"/>
<path d="M62.5026 27.1605C58.1086 22.7833 52.2498 20.3516 46.0655 20.3516C33.2087 20.3516 22.7931 30.7271 22.7931 43.5345C22.7931 47.5874 23.9323 51.6404 25.8853 55.0449L22.6304 67.0416L34.9989 63.7993C38.4165 65.5826 42.1596 66.5553 46.0655 66.5553C58.9223 66.5553 69.3379 56.1797 69.3379 43.3724C69.1752 37.374 66.8967 31.5377 62.5026 27.1605ZM57.2948 51.8025C56.8066 53.0995 54.5282 54.3964 53.389 54.5585C52.4125 54.7206 51.1106 54.7206 49.8086 54.3964C48.9949 54.0722 47.8557 53.7479 46.5537 53.0995C40.695 50.6677 36.9518 44.8314 36.6264 44.3451C36.3009 44.0208 34.1852 41.2648 34.1852 38.3467C34.1852 35.4286 35.6499 34.1316 36.1381 33.4831C36.6264 32.8347 37.2773 32.8347 37.7656 32.8347C38.0911 32.8347 38.5793 32.8347 38.9048 32.8347C39.2303 32.8347 39.7185 32.6726 40.2067 33.8074C40.695 34.9422 41.8342 37.8603 41.9969 38.0225C42.1596 38.3467 42.1596 38.6709 41.9969 38.9952C41.8342 39.3194 41.6714 39.6436 41.3459 39.9679C41.0204 40.2921 40.6949 40.7785 40.5322 40.9406C40.2067 41.2648 39.8812 41.5891 40.2067 42.0754C40.5322 42.7239 41.6714 44.5072 43.4616 46.1284C45.74 48.0738 47.5302 48.7223 48.1812 49.0465C48.8322 49.3707 49.1576 49.2086 49.4831 48.8844C49.8086 48.5601 50.9478 47.2632 51.2733 46.6147C51.5988 45.9663 52.087 46.1284 52.5753 46.2905C53.0635 46.4526 55.9929 47.9117 56.4811 48.2359C57.1321 48.5601 57.4576 48.7223 57.6203 48.8844C57.7831 49.3707 57.7831 50.5056 57.2948 51.8025Z" fill="white"/>
</svg>
